HIERARCHY
ROOT Hips
{
    OFFSET 0.0 0.0 0.0
    CHANNELS 6 Xposition Yposition Zposition Zrotation Xrotation Yrotation
    JOINT LHipJoint
    {
        OFFSET 0.1 0.0 0.0
        CHANNELS 3 Zrotation Xrotation Yrotation
        JOINT LeftHip
        {
            OFFSET 0.12197799980640411 0.0 0.0
            CHANNELS 3 Zrotation Xrotation Yrotation
            JOINT LeftKnee
            {
                OFFSET 0.0 0.0 -0.5853042602539062
                CHANNELS 3 Zrotation Xrotation Yrotation
                JOINT LeftAnkle
                {
                    OFFSET 0.0 0.0 -0.5686834454536438
                    CHANNELS 3 Zrotation Xrotation Yrotation
                    End Site
                    {
                        OFFSET 0.0 -0.1 0.0
                    }
                }
            }
        }
    }
    JOINT lowerback
    {
        OFFSET 0.0 0.0 0.1
        CHANNELS 3 Zrotation Xrotation Yrotation
        JOINT Chest
        {
            OFFSET 0.0 0.0 0.24749666452407837
            CHANNELS 3 Zrotation Xrotation Yrotation
            JOINT Chest2
            {
                OFFSET 0.0 0.0 0.25728103518486023
                CHANNELS 3 Zrotation Xrotation Yrotation
                JOINT LeftCollar
                {
                    OFFSET 0.1 0.0 0.0
                    CHANNELS 3 Zrotation Xrotation Yrotation
                    JOINT LeftShoulder
                    {
                        OFFSET 0.13868111371994019 0.0 0.0
                        CHANNELS 3 Zrotation Xrotation Yrotation
                        JOINT LeftElbow
                        {
                            OFFSET 0.2598479688167572 0.0 0.0
                            CHANNELS 3 Zrotation Xrotation Yrotation
                            JOINT LeftWrist
                            {
                                OFFSET 0.303337037563324 0.0 0.0
                                CHANNELS 3 Zrotation Xrotation Yrotation
                                End Site
                                {
                                    OFFSET 0.1 0.0 0.0
                                }
                            }
                        }
                    }
                }
                JOINT Neck
                {
                    OFFSET 0.0 0.0 0.1
                    CHANNELS 3 Zrotation Xrotation Yrotation
                    JOINT Head
                    {
                        OFFSET 0.0 0.0 0.16352225840091705
                        CHANNELS 3 Zrotation Xrotation Yrotation
                        End Site
                        {
                            OFFSET 0.0 0.0 0.1505243331193924
                        }
                    }
                }
                JOINT RightCollar
                {
                    OFFSET -0.1 0.0 0.0
                    CHANNELS 3 Zrotation Xrotation Yrotation
                    JOINT RightShoulder
                    {
                        OFFSET -0.13868111371994019 0.0 0.0
                        CHANNELS 3 Zrotation Xrotation Yrotation
                        JOINT RightElbow
                        {
                            OFFSET -0.2598479688167572 0.0 0.0
                            CHANNELS 3 Zrotation Xrotation Yrotation
                            JOINT RightWrist
                            {
                                OFFSET -0.303337037563324 0.0 0.0
                                CHANNELS 3 Zrotation Xrotation Yrotation
                                End Site
                                {
                                    OFFSET -0.1 0.0 0.0
                                }
                            }
                        }
                    }
                }
            }
        }
    }
    JOINT RHipJoint
    {
        OFFSET -0.1 0.0 0.0
        CHANNELS 3 Zrotation Xrotation Yrotation
        JOINT RightHip
        {
            OFFSET -0.12197799980640411 0.0 0.0
            CHANNELS 3 Zrotation Xrotation Yrotation
            JOINT RightKnee
            {
                OFFSET 0.0 0.0 -0.5853042602539062
                CHANNELS 3 Zrotation Xrotation Yrotation
                JOINT RightAnkle
                {
                    OFFSET 0.0 0.0 -0.5686834454536438
                    CHANNELS 3 Zrotation Xrotation Yrotation
                    End Site
                    {
                        OFFSET 0.0 -0.1 0.0
                    }
                }
            }
        }
    }
}
MOTION
Frames: 4
Frame Time: 0.03333333333333333
0.00017120951088145375 1.8018611669540405 1.6679492546245456e-05 -92.27948438976745 -30.93025451335226 -94.17096798732938 0.0 0.0 0.0 -0.6426271025689062 -5.262907220877954 -7.355469426190741 -0.3946122004879158 30.35172715787432 4.912962681563823 3.1805546814635164e-15 -6.3611093629270335e-15 -7.951386703658792e-15 0.0 0.0 0.0 1.2787520934269208 10.744171935901525 -5.975775808139525 18.52102095699957 -3.994713083578775e-06 1.9644816135373347e-07 -6.3611093629270335e-15 -6.3611093629270335e-15 -3.1805546814635168e-15 -13.05628531834657 -16.135367337113188 80.02291782866695 -20.262037320690006 3.9116876835237e-06 1.4179241743797067e-06 -6.361109362927032e-15 -2.7829853462805764e-15 -1.5448672043175555e-31 -6.3611093629270335e-15 -6.3611093629270335e-15 -3.1805546814635168e-15 10.45165567686258 4.920633375558189 0.17072762321956714 -6.3611093629270335e-15 -6.3611093629270335e-15 -3.1805546814635168e-15 -26.2182858455155 32.41036806148975 -59.73244008055646 97.35148110579368 3.2659515725351086e-06 3.1333972456685678e-06 0.0 3.1805546814635168e-15 0.0 0.0 0.0 0.0 -1.4045192524115646 -11.897274281579456 -0.8114501022728594 4.261590541769122 34.81312612116899 -2.930286582207171 -3.1805546814635168e-15 7.951386703658792e-15 -1.5902773407317582e-15
0.00016933275037445128 1.8018598556518555 1.6170160961337388e-05 -92.43267289345273 -30.68373355687158 -94.35478100027724 3.1805546814635176e-15 -4.770832022195277e-15 -6.361109362927035e-15 -0.5868492270306316 -4.988274888835258 -7.3386897847407235 -0.5344036332410803 30.03718231475651 4.970477730681254 -3.1805546814635168e-15 1.7655625192200634e-31 -6.3611093629270335e-15 3.1805546814635176e-15 -4.770832022195277e-15 -6.361109362927035e-15 1.2704931116684737 11.10500468739259 -5.798354180449917 18.59603962280933 -1.0388647467545576e-06 3.410973936556183e-06 3.1805546814635164e-15 -7.95138670365879e-16 4.770832022195274e-15 -14.749441344991588 -15.777527027173647 78.6084089310592 -20.6368006155936 1.0717927652453378e-06 -1.167274658365512e-06 -6.3611093629270335e-15 0.0 0.0 3.1805546814635164e-15 -7.95138670365879e-16 4.770832022195274e-15 10.144434908818306 4.870977917523 0.3875898062741915 3.1805546814635164e-15 -7.95138670365879e-16 4.770832022195274e-15 -26.217871929899065 32.42589719490055 -59.20590815065301 97.72891897358909 3.560590144068449e-06 -1.5375800691622222e-06 1.590277340731758e-15 -3.1805546814635164e-15 -6.361109362927033e-15 3.1805546814635176e-15 -4.770832022195277e-15 -6.361109362927035e-15 -1.3338171242966264 -11.772576448218226 -0.728418193733882 4.143051569523896 34.90564119913441 -3.2655617747385013 0.0 -6.3611093629270335e-15 0.0
0.0001741747255437076 1.8018550872802734 1.9606566638685763e-05 -90.75792561448831 -30.515068375470307 -92.60253633934607 8.827812596100317e-32 1.5902773407317584e-15 -6.3611093629270335e-15 -0.836389830266278 -6.80475817418103 -8.090973275049977 -0.7768413565670186 30.643900704208512 5.31455734974065 -3.3104297235376187e-31 4.770832022195274e-15 7.95138670365879e-15 8.827812596100317e-32 1.5902773407317584e-15 -6.3611093629270335e-15 1.2085812390625705 10.053227412261526 -6.140863675524148 18.47812491138007 9.195261922344e-08 -4.413564745986162e-07 1.5902773407317582e-15 4.770832022195275e-15 4.770832022195275e-15 -12.254022750017281 -17.006172865284523 79.207598673404 -19.661237436158867 -1.5023316795237313e-06 -1.9937090573629034e-06 -2.2069531490250793e-32 -3.975693351829396e-16 -6.3611093629270335e-15 1.5902773407317582e-15 4.770832022195275e-15 4.770832022195275e-15 10.20267115410738 5.044377177543305 0.2315223669903912 1.5902773407317582e-15 4.770832022195275e-15 4.770832022195275e-15 -26.513688819715718 33.09689658458946 -58.58212101422793 98.77347230911138 1.2621576085706894e-06 4.151410018122224e-06 -4.770832022195275e-15 0.0 0.0 8.827812596100317e-32 1.5902773407317584e-15 -6.3611093629270335e-15 -1.608627244137006 -13.407980592297623 -2.244944168320708 3.387944590384026 35.22083051968969 -2.6420226574402768 2.2069531490250793e-32 -1.5902773407317584e-15 1.5902773407317584e-15
0.00017534865764901042 1.8018542528152466 1.9874030840583146e-05 -90.75204373387238 -30.18795660855348 -92.90875225397735 0.0 0.0 0.0 -0.8259109003690625 -7.006539811884681 -7.748968678736808 -0.7415591061313501 30.691187923921262 5.369666184551597 3.180554681463516e-15 -1.5902773407317578e-15 4.7708320221952736e-15 0.0 0.0 0.0 1.1420703236596388 9.917549136389301 -6.2447140906325584 18.593014437128197 -1.2585858479460849e-06 7.280503572311448e-07 -3.1805546814635168e-15 -7.951386703658792e-16 1.5902773407317584e-15 -12.07857479827257 -17.013950561740007 79.26284048701856 -18.15674544832407 -8.017884724236868e-07 3.874083365918973e-06 6.3611093629270335e-15 3.1805546814635168e-15 -1.7655625192200634e-31 -3.1805546814635168e-15 -7.951386703658792e-16 1.5902773407317584e-15 10.847237736244521 5.591038144245938 0.5309907393216157 -3.1805546814635168e-15 -7.951386703658792e-16 1.5902773407317584e-15 -26.874050572526368 33.01216704969564 -57.63549346466499 98.66342122338429 -9.718562548266523e-09 -2.3661571706821044e-06 -3.1805546814635168e-15 0.0 0.0 0.0 0.0 0.0 -1.5542689391159237 -13.524110896434372 -1.8457734880487282 3.4805076898727827 35.316510209439144 -2.9556169446219034 6.3611093629270335e-15 -6.3611093629270335e-15 3.531125038440127e-31
